<svg id="visual" viewBox="0 0 960 540" width="960" height="540" xmlns="http://www.w3.org/2000/svg" xmlns:xlink="http://www.w3.org/1999/xlink" version="1.1"><path d="M0 87L17.8 79C35.7 71 71.3 55 106.8 47.8C142.3 40.7 177.7 42.3 213.2 46.8C248.7 51.3 284.3 58.7 320 61.3C355.7 64 391.3 62 426.8 61C462.3 60 497.7 60 533.2 61C568.7 62 604.3 64 640 64C675.7 64 711.3 62 746.8 61C782.3 60 817.7 60 853.2 57.3C888.7 54.7 924.3 49.3 942.2 46.7L960 44L960 0L942.2 0C924.3 0 888.7 0 853.2 0C817.7 0 782.3 0 746.8 0C711.3 0 675.7 0 640 0C604.3 0 568.7 0 533.2 0C497.7 0 462.3 0 426.8 0C391.3 0 355.7 0 320 0C284.3 0 248.7 0 213.2 0C177.7 0 142.3 0 106.8 0C71.3 0 35.7 0 17.8 0L0 0Z" fill="#38b6ff"></path><path d="M0 206L17.8 201.5C35.7 197 71.3 188 106.8 181.7C142.3 175.3 177.7 171.7 213.2 176.2C248.7 180.7 284.3 193.3 320 192.5C355.7 191.7 391.3 177.3 426.8 166.5C462.3 155.7 497.7 148.3 533.2 143.8C568.7 139.3 604.3 137.7 640 141.3C675.7 145 711.3 154 746.8 154C782.3 154 817.7 145 853.2 142.3C888.7 139.7 924.3 143.3 942.2 145.2L960 147L960 42L942.2 44.7C924.3 47.3 888.7 52.7 853.2 55.3C817.7 58 782.3 58 746.8 59C711.3 60 675.7 62 640 62C604.3 62 568.7 60 533.2 59C497.7 58 462.3 58 426.8 59C391.3 60 355.7 62 320 59.3C284.3 56.7 248.7 49.3 213.2 44.8C177.7 40.3 142.3 38.7 106.8 45.8C71.3 53 35.7 69 17.8 77L0 85Z" fill="#3689bf"></path><path d="M0 384L17.8 374.2C35.7 364.3 71.3 344.7 106.8 331.2C142.3 317.7 177.7 310.3 213.2 310.3C248.7 310.3 284.3 317.7 320 322.2C355.7 326.7 391.3 328.3 426.8 336.5C462.3 344.7 497.7 359.3 533.2 355.8C568.7 352.3 604.3 330.7 640 325.2C675.7 319.7 711.3 330.3 746.8 323.2C782.3 316 817.7 291 853.2 282C888.7 273 924.3 280 942.2 283.5L960 287L960 145L942.2 143.2C924.3 141.3 888.7 137.7 853.2 140.3C817.7 143 782.3 152 746.8 152C711.3 152 675.7 143 640 139.3C604.3 135.7 568.7 137.3 533.2 141.8C497.7 146.3 462.3 153.7 426.8 164.5C391.3 175.3 355.7 189.7 320 190.5C284.3 191.3 248.7 178.7 213.2 174.2C177.7 169.7 142.3 173.3 106.8 179.7C71.3 186 35.7 195 17.8 199.5L0 204Z" fill="#2e5f82"></path><path d="M0 444L17.8 435.8C35.7 427.7 71.3 411.3 106.8 402.3C142.3 393.3 177.7 391.7 213.2 388.2C248.7 384.7 284.3 379.3 320 381.2C355.7 383 391.3 392 426.8 401C462.3 410 497.7 419 533.2 419C568.7 419 604.3 410 640 412.7C675.7 415.3 711.3 429.7 746.8 418.8C782.3 408 817.7 372 853.2 363.8C888.7 355.7 924.3 375.3 942.2 385.2L960 395L960 285L942.2 281.5C924.3 278 888.7 271 853.2 280C817.7 289 782.3 314 746.8 321.2C711.3 328.3 675.7 317.7 640 323.2C604.3 328.7 568.7 350.3 533.2 353.8C497.7 357.3 462.3 342.7 426.8 334.5C391.3 326.3 355.7 324.7 320 320.2C284.3 315.7 248.7 308.3 213.2 308.3C177.7 308.3 142.3 315.7 106.8 329.2C71.3 342.7 35.7 362.3 17.8 372.2L0 382Z" fill="#22384a"></path><path d="M0 541L17.8 541C35.7 541 71.3 541 106.8 541C142.3 541 177.7 541 213.2 541C248.7 541 284.3 541 320 541C355.7 541 391.3 541 426.8 541C462.3 541 497.7 541 533.2 541C568.7 541 604.3 541 640 541C675.7 541 711.3 541 746.8 541C782.3 541 817.7 541 853.2 541C888.7 541 924.3 541 942.2 541L960 541L960 393L942.2 383.2C924.3 373.3 888.7 353.7 853.2 361.8C817.7 370 782.3 406 746.8 416.8C711.3 427.7 675.7 413.3 640 410.7C604.3 408 568.7 417 533.2 417C497.7 417 462.3 408 426.8 399C391.3 390 355.7 381 320 379.2C284.3 377.3 248.7 382.7 213.2 386.2C177.7 389.7 142.3 391.3 106.8 400.3C71.3 409.3 35.7 425.7 17.8 433.8L0 442Z" fill="#111519"></path></svg>