<svg id="visual" viewBox="0 0 960 540" width="960" height="540" xmlns="http://www.w3.org/2000/svg" xmlns:xlink="http://www.w3.org/1999/xlink" version="1.1"><path d="M0 66L17.8 66.8C35.7 67.7 71.3 69.3 106.8 81C142.3 92.7 177.7 114.3 213.2 118.8C248.7 123.3 284.3 110.7 320 103.5C355.7 96.3 391.3 94.7 426.8 97.3C462.3 100 497.7 107 533.2 103.3C568.7 99.7 604.3 85.3 640 80.8C675.7 76.3 711.3 81.7 746.8 87.2C782.3 92.7 817.7 98.3 853.2 99.3C888.7 100.3 924.3 96.7 942.2 94.8L960 93L960 0L942.2 0C924.3 0 888.7 0 853.2 0C817.7 0 782.3 0 746.8 0C711.3 0 675.7 0 640 0C604.3 0 568.7 0 533.2 0C497.7 0 462.3 0 426.8 0C391.3 0 355.7 0 320 0C284.3 0 248.7 0 213.2 0C177.7 0 142.3 0 106.8 0C71.3 0 35.7 0 17.8 0L0 0Z" fill="#38b6ff"></path><path d="M0 131L17.8 132.7C35.7 134.3 71.3 137.7 106.8 150.2C142.3 162.7 177.7 184.3 213.2 184.3C248.7 184.3 284.3 162.7 320 151.8C355.7 141 391.3 141 426.8 149.2C462.3 157.3 497.7 173.7 533.2 169.2C568.7 164.7 604.3 139.3 640 132.2C675.7 125 711.3 136 746.8 142.3C782.3 148.7 817.7 150.3 853.2 154.8C888.7 159.3 924.3 166.7 942.2 170.3L960 174L960 91L942.2 92.8C924.3 94.7 888.7 98.3 853.2 97.3C817.7 96.3 782.3 90.7 746.8 85.2C711.3 79.7 675.7 74.3 640 78.8C604.3 83.3 568.7 97.7 533.2 101.3C497.7 105 462.3 98 426.8 95.3C391.3 92.7 355.7 94.3 320 101.5C284.3 108.7 248.7 121.3 213.2 116.8C177.7 112.3 142.3 90.7 106.8 79C71.3 67.3 35.7 65.7 17.8 64.8L0 64Z" fill="#3689bf"></path><path d="M0 212L17.8 215.5C35.7 219 71.3 226 106.8 233.2C142.3 240.3 177.7 247.7 213.2 242.3C248.7 237 284.3 219 320 213.5C355.7 208 391.3 215 426.8 224C462.3 233 497.7 244 533.2 242.3C568.7 240.7 604.3 226.3 640 217.3C675.7 208.3 711.3 204.7 746.8 205.5C782.3 206.3 817.7 211.7 853.2 223.3C888.7 235 924.3 253 942.2 262L960 271L960 172L942.2 168.3C924.3 164.7 888.7 157.3 853.2 152.8C817.7 148.3 782.3 146.7 746.8 140.3C711.3 134 675.7 123 640 130.2C604.3 137.3 568.7 162.7 533.2 167.2C497.7 171.7 462.3 155.3 426.8 147.2C391.3 139 355.7 139 320 149.8C284.3 160.7 248.7 182.3 213.2 182.3C177.7 182.3 142.3 160.7 106.8 148.2C71.3 135.7 35.7 132.3 17.8 130.7L0 129Z" fill="#2e5f82"></path><path d="M0 433L17.8 424.8C35.7 416.7 71.3 400.3 106.8 399.5C142.3 398.7 177.7 413.3 213.2 406.2C248.7 399 284.3 370 320 371.7C355.7 373.3 391.3 405.7 426.8 410.2C462.3 414.7 497.7 391.3 533.2 379.7C568.7 368 604.3 368 640 367.2C675.7 366.3 711.3 364.7 746.8 359.3C782.3 354 817.7 345 853.2 347.7C888.7 350.3 924.3 364.7 942.2 371.8L960 379L960 269L942.2 260C924.3 251 888.7 233 853.2 221.3C817.7 209.7 782.3 204.3 746.8 203.5C711.3 202.7 675.7 206.3 640 215.3C604.3 224.3 568.7 238.7 533.2 240.3C497.7 242 462.3 231 426.8 222C391.3 213 355.7 206 320 211.5C284.3 217 248.7 235 213.2 240.3C177.7 245.7 142.3 238.3 106.8 231.2C71.3 224 35.7 217 17.8 213.5L0 210Z" fill="#22384a"></path><path d="M0 541L17.8 541C35.7 541 71.3 541 106.8 541C142.3 541 177.7 541 213.2 541C248.7 541 284.3 541 320 541C355.7 541 391.3 541 426.8 541C462.3 541 497.7 541 533.2 541C568.7 541 604.3 541 640 541C675.7 541 711.3 541 746.8 541C782.3 541 817.7 541 853.2 541C888.7 541 924.3 541 942.2 541L960 541L960 377L942.2 369.8C924.3 362.7 888.7 348.3 853.2 345.7C817.7 343 782.3 352 746.8 357.3C711.3 362.7 675.7 364.3 640 365.2C604.3 366 568.7 366 533.2 377.7C497.7 389.3 462.3 412.7 426.8 408.2C391.3 403.7 355.7 371.3 320 369.7C284.3 368 248.7 397 213.2 404.2C177.7 411.3 142.3 396.7 106.8 397.5C71.3 398.3 35.7 414.7 17.8 422.8L0 431Z" fill="#111519"></path></svg>